<?xml version="1.0" encoding="UTF-8" standalone="no"?>


<svg width="300mm" height="300mm" viewBox="0 0 300 300" version="1.1" id="svg1" xml:space="preserve" xmlns:inkscape="http://www.inkscape.org/namespaces/inkscape" xmlns:sodipodi="http://sodipodi.sourceforge.net/DTD/sodipodi-0.dtd" xmlns:xlink="http://www.w3.org/1999/xlink" xmlns="http://www.w3.org/2000/svg" xmlns:svg="http://www.w3.org/2000/svg"><defs id="defs1"><linearGradient id="linearGradient1"><stop style="stop-color:#00dbb9;stop-opacity:1;" offset="0" id="stop2"></stop><stop style="stop-color:#7317ff;stop-opacity:1;" offset="1" id="stop1"></stop></linearGradient><linearGradient xlink:href="#linearGradient1" id="linearGradient2" x1="76.596825" y1="82.716858" x2="233.49379" y2="239.61383" gradientUnits="userSpaceOnUse"></linearGradient></defs><path id="path6" style="display:inline;fill:url(#linearGradient2);fill-rule:nonzero;stroke:none;stroke-width:5.66499;stroke-linecap:round" d="M 139.3269,45.768783 C 126.88229,45.706148 95.328135,48.241638 71.292289,73.203284 61.843322,83.016179 47.31339,102.04964 44.663424,128.3317 c -6.621328,65.66952 47.193245,92.9287 65.103006,70.99929 -32.613971,12.4543 -59.632157,-25.84645 -53.371939,-68.86298 3.10699,-21.34941 15.9332,-37.938267 25.19071,-47.436902 5.427134,-5.568491 22.887769,-21.542941 47.604329,-25.073922 35.98193,-5.140346 81.37009,11.685423 69.50325,52.880494 21.40391,-17.159778 -0.14812,-64.770831 -59.36588,-65.068897 z m 30.06896,24.740092 c -0.13986,0.780925 15.7155,4.18369 18.12809,20.062341 1.84384,12.005594 -1.95562,24.498424 -4.14649,30.378504 -4.3814,11.75925 -12.17947,24.61767 -24.35033,36.75954 -12.17086,12.14187 -24.85679,20.30474 -37.63186,24.94269 -5.86887,2.13066 -18.24679,5.7681 -30.193502,3.83129 -15.558836,-2.49433 -18.996319,-17.81412 -20.177063,-17.60306 -1.194435,0.21437 1.39647,18.53479 18.936312,23.24974 13.319633,3.59786 27.519723,0.16754 33.996373,-1.85311 3.23912,-1.01058 6.47122,-2.23697 9.679,-3.67781 2.93812,3.21771 11.67161,9.65724 25.83356,3.22667 0.51974,2.27797 1.50261,5.26982 2.30529,8.72608 1.72873,10.67723 2.13014,19.22365 8.92193,28.33523 4.94229,5.39527 8.49946,11.66414 11.60748,18.21932 3.07739,6.49078 4.05348,16.71238 0.013,25.20955 -2.48575,5.22727 5.35512,8.95572 7.84087,3.72845 5.34005,-11.23027 4.62575,-23.9551 -0.44855,-33.54007 -2.8174,-7.44396 -7.35856,-11.57584 -11.88507,-20.45973 -5.93146,-7.95448 -4.20766,-14.06077 -4.92476,-23.05027 -0.40158,-5.97052 -1.96142,-10.8536 -3.63182,-13.19506 0.17381,-0.13365 0.34794,-0.26943 0.52297,-0.4067 1.73545,2.52942 4.90398,5.86046 8.0455,9.26094 6.76431,7.51395 13.01667,15.63107 16.51527,25.21034 1.35773,4.14855 2.10119,8.60352 3.45664,13.13305 0.98929,3.30466 3.27759,9.40579 7.58661,13.54595 6.38008,6.1429 15.91935,7.80933 24.11895,4.23385 4.93753,-2.20003 1.70548,-9.61259 -3.26647,-7.49154 -4.66716,2.03515 -10.78159,1.38248 -15.14998,-2.72076 -2.93588,-2.76759 -4.86938,-7.35322 -5.80326,-9.99526 -1.47415,-4.17243 -2.52565,-8.67391 -4.25814,-13.11651 -3.34012,-8.94625 -8.86563,-16.22478 -17.55707,-27.44225 -2.80001,-3.82946 -5.52491,-7.67078 -7.70237,-9.83351 1.2085,-1.15603 2.48234,-2.43766 3.67471,-3.70623 1.71163,0.90149 4.05496,1.86857 6.3562,3.58014 4.31134,3.41817 7.17269,8.23064 10.20455,12.73514 9.02396,13.81618 16.24631,18.39025 20.71863,20.64112 5.77715,2.91426 11.83293,4.03246 16.24242,7.167 3.06679,2.40147 5.623,6.10495 6.58771,9.92705 1.25189,5.5451 9.56816,3.67645 8.32766,-1.87121 -1.74384,-5.74755 -5.16756,-11.39162 -10.03815,-14.97118 -5.63746,-3.95554 -12.09561,-5.09221 -17.38189,-7.71529 -9.23039,-4.59405 -14.69079,-13.76571 -16.9478,-17.75964 -2.9899,-5.82031 -5.94378,-11.72918 -10.74043,-16.29564 -1.59447,-1.4853 -3.03675,-2.47899 -4.33307,-3.11144 3.47071,0.40841 8.54372,0.89003 14.17691,2.64893 6.75971,2.94516 9.44739,3.31851 25.0021,19.96467 2.64871,3.43112 7.37316,7.43824 11.24427,11.19622 5.86542,5.85693 13.04545,10.36975 21.14341,12.26178 6.27777,1.48346 8.51479,-7.92575 2.24121,-9.42681 -3.36191,-0.79944 -11.80251,-3.18999 -18.54409,-8.31784 -3.70865,-2.92513 -6.98198,-6.57663 -9.84901,-9.94668 -2.86708,-3.37004 -5.98505,-7.75417 -10.06502,-11.90625 -5.41677,-5.36572 -11.81147,-9.33587 -18.42368,-11.80083 -6.89679,-2.57107 -11.79147,-3.00767 -14.9009,-2.58124 2.50891,-5.48856 6.10219,-17.19419 -3.46387,-25.90178 1.43383,-3.25331 2.61886,-6.46821 3.57394,-9.61543 1.97457,-6.50664 5.23175,-20.59109 1.53686,-33.809822 C 187.55889,73.169869 170.9936,69.810673 169.39586,70.508875 Z m -37.95117,5.312902 C 119.8515,80.44692 108.52615,88.220935 98.601307,98.159622 88.676465,108.09831 80.763495,119.30523 76.343144,130.92022 c -7.230085,18.9979 -6.317388,68.18064 46.430236,44.70425 -34.346397,3.56965 -40.658237,-19.78677 -32.145837,-43.81283 3.109475,-8.77642 9.124568,-17.34164 16.745227,-24.9623 7.62068,-7.62068 16.2735,-13.399209 24.9623,-16.745748 31.64426,-11.637879 46.57574,-3.833923 43.81335,32.145848 C 201.58664,61.657824 144.7383,70.518235 131.44469,75.821777 Z m 16.0631,39.669363 c -7.36376,-0.22251 -16.21769,5.64079 -22.98826,13.28395 -9.02743,10.19087 -14.35077,23.54585 -7.49928,29.85709 6.85148,6.31124 20.13893,-0.69948 29.72273,-10.87376 9.5838,-10.17429 15.46351,-23.51218 7.49928,-29.85657 -1.99106,-1.5861 -4.27988,-2.33654 -6.73447,-2.41071 z" xmlns:sodipodi-0.dtd="sodipodi-0.dtd" xmlns:sodipodi-0.dtd="sodipodi-0.dtd" sodipodi-0.dtd:nodetypes="cssscsssccsssscccsssscsccsccccccccscscscccscsccccsscccccsccccccccscccsssccscscssss"></path></svg>